# xmcd
#
# Track frame offsets:
#	150
#	15665
#	35830
#	52842
#	70377
#	85497
#	98897
#	115930
#	129300
#	146140
#	164627
#	175970
#
# Disc length: 2632 seconds
#
# Revision: 0
# Processed by: cddbd v1.4PL0 Copyright (c) Steve Scherf et al.
# Submitted via: EasyCDDAExtractor 4.6.9.1
#
DISCID=ab0a460c
DTITLE=Bondi Cigars
DYEAR=1990
DGENRE=Blues
TTITLE0=Howling at the Moon
TTITLE1=Someboby Else Is Stepping In
TTITLE2=Cry To Me
TTITLE3=Snatching It Back
TTITLE4=Ghost Train
TTITLE5=Look What You Done
TTITLE6=I Just Got To Know
TTITLE7=I Can't Sleep
TTITLE8=Come To Mama
TTITLE9=Every Night About This Time
TTITLE10=Hiddens Charms
TTITLE11=Don't Bite The Hand That Feeds You
EXTD=
EXTT0=
EXTT1=
EXTT2=
EXTT3=
EXTT4=
EXTT5=
EXTT6=
EXTT7=
EXTT8=
EXTT9=
EXTT10=
EXTT11=
PLAYORDER=
